<svg id="Layer_1" data-name="Layer 1" xmlns="http://www.w3.org/2000/svg" xmlns:xlink="http://www.w3.org/1999/xlink" viewBox="0 0 256.55 95.03"><defs><style>.cls-1{fill:#662d91;}.cls-2{fill:url(#linear-gradient);}.cls-3{fill:#29abe2;}.cls-4{fill:url(#linear-gradient-2);}.cls-5{fill:url(#linear-gradient-3);}.cls-6{fill:url(#linear-gradient-4);}.cls-7{fill:url(#linear-gradient-5);}.cls-8{fill:url(#linear-gradient-6);}.cls-9{fill:url(#linear-gradient-7);}</style><linearGradient id="linear-gradient" x1="-51.16" y1="270.33" x2="-45.78" y2="270.33" gradientTransform="translate(128.52 -243.08)" gradientUnits="userSpaceOnUse"><stop offset="0" stop-color="#29abe2"/><stop offset="0.75" stop-color="#662d91"/></linearGradient><linearGradient id="linear-gradient-2" x1="85.96" y1="49.2" x2="122.6" y2="49.2" gradientTransform="matrix(1, 0, 0, 1, 0, 0)" xlink:href="#linear-gradient"/><linearGradient id="linear-gradient-3" x1="126.41" y1="49.2" x2="166.18" y2="49.2" gradientTransform="matrix(1, 0, 0, 1, 0, 0)" xlink:href="#linear-gradient"/><linearGradient id="linear-gradient-4" x1="168.65" y1="49.2" x2="204.57" y2="49.2" gradientTransform="matrix(1, 0, 0, 1, 0, 0)" xlink:href="#linear-gradient"/><linearGradient id="linear-gradient-5" x1="135.47" y1="46.58" x2="175.66" y2="46.58" gradientTransform="matrix(1, 0, 0, 1, 0, 0)" xlink:href="#linear-gradient"/><linearGradient id="linear-gradient-6" x1="243.22" y1="49.2" x2="283.56" y2="49.2" gradientTransform="matrix(1, 0, 0, 1, 0, 0)" xlink:href="#linear-gradient"/><linearGradient id="linear-gradient-7" x1="216.36" y1="46.58" x2="256.55" y2="46.58" gradientTransform="matrix(1, 0, 0, 1, 0, 0)" xlink:href="#linear-gradient"/></defs><title>b</title><circle class="cls-1" cx="75.67" cy="13.51" r="4.23"/><circle class="cls-1" cx="67.67" cy="8.4" r="4.03"/><circle class="cls-1" cx="58.77" cy="5.07" r="3.84"/><circle class="cls-1" cx="49.38" cy="3.65" r="3.65"/><circle class="cls-1" cx="39.9" cy="4.22" r="3.46"/><circle class="cls-1" cx="30.76" cy="6.76" r="3.27"/><circle class="cls-1" cx="22.34" cy="11.15" r="3.07"/><circle class="cls-1" cx="15.01" cy="17.19" r="2.88"/><circle class="cls-2" cx="80.05" cy="27.24" r="2.69" transform="translate(-71.56 50) rotate(-36.26)"/><circle class="cls-3" cx="4.88" cy="33.13" r="2.5"/><circle class="cls-3" cx="2.52" cy="42.33" r="2.31"/><circle class="cls-3" cx="2.11" cy="51.82" r="2.11"/><circle class="cls-3" cx="3.7" cy="61.18" r="1.92"/><circle class="cls-3" cx="7.22" cy="70" r="1.73"/><circle class="cls-3" cx="12.48" cy="77.9" r="1.54"/><circle class="cls-3" cx="19.27" cy="84.54" r="1.34"/><circle class="cls-3" cx="27.3" cy="89.61" r="1.15"/><circle class="cls-3" cx="36.21" cy="92.89" r="0.96"/><circle class="cls-3" cx="45.61" cy="94.26" r="0.77"/><circle class="cls-3" cx="55.08" cy="93.64" r="0.58"/><circle class="cls-3" cx="64.22" cy="91.05" r="0.38"/><circle class="cls-3" cx="72.61" cy="86.61" r="0.19"/><path class="cls-3" d="M150.86,83.15" transform="translate(-70.95 -2.62)"/><path class="cls-4" d="M120.88,45.06a9.23,9.23,0,0,0,1.72-5.63,6.93,6.93,0,0,0-3.13-6.09q-3.14-2.13-8.94-2.13H93.16L86,67.18h18.86q7.35,0,11.77-2.88A9.47,9.47,0,0,0,121,55.82a7.27,7.27,0,0,0-4.83-7.19A10.82,10.82,0,0,0,120.88,45.06Zm-10.1,14.52a9.55,9.55,0,0,1-5.45,1.34H95.52L97.27,52h10.07q5.4,0,5.4,3.7A4.38,4.38,0,0,1,110.78,59.58ZM112,44.65A8.65,8.65,0,0,1,106.93,46H98.45l1.7-8.48h8.43q5.29,0,5.29,3.39A4.37,4.37,0,0,1,112,44.65Z" transform="translate(-70.95 -2.62)"/><path class="cls-5" d="M158,32.54a20.92,20.92,0,0,0-9.35-2,23.37,23.37,0,0,0-11.59,2.83,20.2,20.2,0,0,0-7.86,7.73,21.84,21.84,0,0,0-2.8,11,15.68,15.68,0,0,0,2.11,8.17,14.12,14.12,0,0,0,6.06,5.5,20.91,20.91,0,0,0,9.35,2A23.36,23.36,0,0,0,155.52,65a20.2,20.2,0,0,0,7.86-7.73,21.84,21.84,0,0,0,2.8-11A15.69,15.69,0,0,0,164.08,38,14.13,14.13,0,0,0,158,32.54Zm-1.85,21.17a12.46,12.46,0,0,1-11.51,7q-4.68,0-7.25-2.44a8.61,8.61,0,0,1-2.57-6.55,15.52,15.52,0,0,1,1.59-7,12.46,12.46,0,0,1,11.51-7q4.68,0,7.25,2.44a8.61,8.61,0,0,1,2.57,6.55A15.53,15.53,0,0,1,156.16,53.72Z" transform="translate(-70.95 -2.62)"/><path class="cls-6" d="M200.87,34.14q-3.7-2.93-10.38-2.93H175.84l-7.19,36H177l2-10.07h7.09l5.65,10.07h8.79l-6.27-11.1A14.54,14.54,0,0,0,201.85,51a13.89,13.89,0,0,0,2.72-8.63A9.89,9.89,0,0,0,200.87,34.14Zm-7,14.44a9.82,9.82,0,0,1-6.45,1.9h-7.09L182.83,38h6.58a8.31,8.31,0,0,1,5,1.28,4.48,4.48,0,0,1,1.75,3.85A6.69,6.69,0,0,1,193.86,48.58Z" transform="translate(-70.95 -2.62)"/><polygon class="cls-7" points="167.33 28.59 164.51 42.72 148.22 42.72 151.04 28.59 142.66 28.59 135.47 64.56 143.85 64.56 146.78 49.91 163.07 49.91 160.14 64.56 168.46 64.56 175.66 28.59 167.33 28.59"/><path class="cls-8" d="M266.5,31.21l-23.28,36h8.89l4.68-7.71h16.75l1.7,7.71h8.33l-8.84-36Zm-5.86,21.94,8.48-13.88,3,13.88Z" transform="translate(-70.95 -2.62)"/><polygon class="cls-9" points="248.32 28.59 243.85 51.15 230.44 28.59 223.55 28.59 216.36 64.56 224.58 64.56 229.1 42.05 242.52 64.56 249.35 64.56 256.55 28.59 248.32 28.59"/><path class="cls-1" d="M183.86,79.74a2,2,0,0,1-.65-1.55,3.49,3.49,0,0,1,.07-.65l.67-3.39h1.41l-.67,3.36a2.88,2.88,0,0,0-.05.51,1.05,1.05,0,0,0,.3.82,1.24,1.24,0,0,0,.87.27,1.38,1.38,0,0,0,1-.38,2.38,2.38,0,0,0,.55-1.22l.67-3.36h1.37l-.68,3.45a2.94,2.94,0,0,1-3.09,2.7A2.63,2.63,0,0,1,183.86,79.74Z" transform="translate(-70.95 -2.62)"/><path class="cls-1" d="M195,74.65a1.68,1.68,0,0,1,.62,1.39,2.42,2.42,0,0,1-.36,1.33,2.31,2.31,0,0,1-1,.87,3.72,3.72,0,0,1-1.56.3h-1.35L191,80.2H189.6l1.21-6h2.44A2.73,2.73,0,0,1,195,74.65Zm-1.18,2.42a1.13,1.13,0,0,0,.38-.92.76.76,0,0,0-.29-.65,1.38,1.38,0,0,0-.83-.22H192l-.42,2.1h1.18A1.63,1.63,0,0,0,193.82,77.07Z" transform="translate(-70.95 -2.62)"/><path class="cls-1" d="M200,80a2.41,2.41,0,0,1-1-.92,2.59,2.59,0,0,1-.36-1.37,3.67,3.67,0,0,1,.47-1.85,3.39,3.39,0,0,1,1.33-1.3,4,4,0,0,1,2-.47,3.5,3.5,0,0,1,1.43.28,2,2,0,0,1,.94.79l-1,.83a1.65,1.65,0,0,0-1.46-.71,2.21,2.21,0,0,0-1.17.31,2.13,2.13,0,0,0-.79.85,2.53,2.53,0,0,0-.28,1.19,1.44,1.44,0,0,0,.44,1.11,1.77,1.77,0,0,0,1.25.41,2.1,2.1,0,0,0,1.61-.7l.83.85a3.19,3.19,0,0,1-2.56,1A3.6,3.6,0,0,1,200,80Z" transform="translate(-70.95 -2.62)"/><path class="cls-1" d="M206.13,80a2.37,2.37,0,0,1-1-.92,2.64,2.64,0,0,1-.35-1.37,3.67,3.67,0,0,1,.47-1.85,3.39,3.39,0,0,1,1.32-1.3,3.93,3.93,0,0,1,1.95-.47,3.51,3.51,0,0,1,1.57.33,2.38,2.38,0,0,1,1,.92,2.64,2.64,0,0,1,.35,1.37,3.67,3.67,0,0,1-.47,1.85,3.39,3.39,0,0,1-1.32,1.3,3.93,3.93,0,0,1-1.95.47A3.51,3.51,0,0,1,206.13,80ZM209,78.79a2.12,2.12,0,0,0,.77-.85,2.61,2.61,0,0,0,.27-1.18,1.45,1.45,0,0,0-.43-1.1,1.7,1.7,0,0,0-1.22-.41,2.09,2.09,0,0,0-1.93,1.17,2.61,2.61,0,0,0-.27,1.18,1.45,1.45,0,0,0,.43,1.1,1.7,1.7,0,0,0,1.22.41A2.12,2.12,0,0,0,209,78.79Z" transform="translate(-70.95 -2.62)"/><path class="cls-1" d="M219.87,74.15l-1.2,6h-1.31l.71-3.59-2.31,3h-.62l-1.24-3-.73,3.63h-1.31l1.21-6h1.14l1.51,3.77,3-3.77Z" transform="translate(-70.95 -2.62)"/><path class="cls-1" d="M221.31,74.15h1.41l-1.21,6H220.1Z" transform="translate(-70.95 -2.62)"/><path class="cls-1" d="M229.69,74.15l-1.21,6h-1.15l-2.25-3.78-.76,3.78h-1.38l1.21-6h1.16l2.25,3.79.75-3.79Z" transform="translate(-70.95 -2.62)"/><path class="cls-1" d="M234.62,77.08h1.28l-.5,2.49a3.37,3.37,0,0,1-1.06.54,4.16,4.16,0,0,1-1.25.19,3.57,3.57,0,0,1-1.58-.33,2.45,2.45,0,0,1-1-.92,2.56,2.56,0,0,1-.37-1.37,3.67,3.67,0,0,1,.48-1.86,3.36,3.36,0,0,1,1.34-1.3,4.08,4.08,0,0,1,2-.47,3.84,3.84,0,0,1,1.5.27,2.43,2.43,0,0,1,1,.79l-1,.81a1.83,1.83,0,0,0-.68-.51,2.31,2.31,0,0,0-.9-.16,2.38,2.38,0,0,0-1.22.31,2.12,2.12,0,0,0-.82.84,2.48,2.48,0,0,0-.29,1.2A1.42,1.42,0,0,0,232,78.7a1.87,1.87,0,0,0,1.3.41,2.35,2.35,0,0,0,1-.22Z" transform="translate(-70.95 -2.62)"/><path class="cls-1" d="M249.37,74.15l-3.2,6h-1.49l-.53-4.07L242,80.2h-1.5l-.77-6h1.38l.54,4.25,2.27-4.25h1.3l.52,4.28L248,74.15Z" transform="translate(-70.95 -2.62)"/><path class="cls-1" d="M251.3,75.28,251,76.59h2.81l-.22,1.09h-2.82l-.28,1.4h3.3l-.23,1.12h-4.68l1.21-6h4.57l-.23,1.12Z" transform="translate(-70.95 -2.62)"/><path class="cls-1" d="M260.4,77.54a1.28,1.28,0,0,1,.21.75,1.59,1.59,0,0,1-.74,1.42,3.58,3.58,0,0,1-2,.48h-3.17l1.21-6h2.92a2.66,2.66,0,0,1,1.5.36,1.16,1.16,0,0,1,.53,1,1.55,1.55,0,0,1-.29.95,1.82,1.82,0,0,1-.79.6A1.29,1.29,0,0,1,260.4,77.54Zm-1.51,1.38a.74.74,0,0,0,.33-.65q0-.62-.91-.62h-1.69l-.29,1.49H258A1.61,1.61,0,0,0,258.89,78.92Zm-1.79-3.71-.28,1.42h1.42a1.45,1.45,0,0,0,.86-.22.73.73,0,0,0,.31-.63q0-.57-.89-.57Z" transform="translate(-70.95 -2.62)"/><path class="cls-1" d="M261.87,76.6h2.44l-.22,1.08h-2.44Z" transform="translate(-70.95 -2.62)"/><path class="cls-1" d="M266,74.15h2.53a3.8,3.8,0,0,1,1.59.31,2.32,2.32,0,0,1,1,.88,2.46,2.46,0,0,1,.36,1.34,3.56,3.56,0,0,1-.47,1.85,3.21,3.21,0,0,1-1.33,1.23,4.25,4.25,0,0,1-2,.44h-3Zm1.79,4.9a2.44,2.44,0,0,0,1.23-.3,2,2,0,0,0,.8-.82,2.48,2.48,0,0,0,.28-1.18,1.34,1.34,0,0,0-.44-1.07,1.89,1.89,0,0,0-1.28-.38h-1.2L266.46,79Z" transform="translate(-70.95 -2.62)"/><path class="cls-1" d="M274.34,75.28l-.26,1.31h2.81l-.22,1.09h-2.82l-.28,1.4h3.3l-.23,1.12H272l1.21-6h4.57l-.23,1.12Z" transform="translate(-70.95 -2.62)"/><path class="cls-1" d="M284.69,74.15l-3.83,6h-1.37l-1.41-6h1.44l1,4.31,2.74-4.31Z" transform="translate(-70.95 -2.62)"/><path class="cls-1" d="M286.36,75.28l-.26,1.31h2.81l-.22,1.09h-2.82l-.28,1.4h3.3l-.23,1.12H284l1.21-6h4.57l-.23,1.12Z" transform="translate(-70.95 -2.62)"/><path class="cls-1" d="M291,74.15h1.41l-1,4.9h3l-.23,1.14h-4.43Z" transform="translate(-70.95 -2.62)"/><path class="cls-1" d="M296.45,80a2.37,2.37,0,0,1-1-.92,2.64,2.64,0,0,1-.35-1.37,3.67,3.67,0,0,1,.47-1.85,3.39,3.39,0,0,1,1.32-1.3,3.93,3.93,0,0,1,1.95-.47,3.51,3.51,0,0,1,1.57.33,2.38,2.38,0,0,1,1,.92,2.64,2.64,0,0,1,.35,1.37,3.67,3.67,0,0,1-.47,1.85,3.39,3.39,0,0,1-1.32,1.3,3.93,3.93,0,0,1-1.95.47A3.51,3.51,0,0,1,296.45,80Zm2.86-1.18a2.12,2.12,0,0,0,.77-.85,2.61,2.61,0,0,0,.27-1.18,1.45,1.45,0,0,0-.43-1.1,1.7,1.7,0,0,0-1.22-.41,2.09,2.09,0,0,0-1.93,1.17,2.61,2.61,0,0,0-.27,1.18,1.45,1.45,0,0,0,.43,1.1,1.7,1.7,0,0,0,1.22.41A2.12,2.12,0,0,0,299.31,78.79Z" transform="translate(-70.95 -2.62)"/><path class="cls-1" d="M307.58,74.65A1.68,1.68,0,0,1,308.2,76a2.42,2.42,0,0,1-.36,1.33,2.31,2.31,0,0,1-1,.87,3.72,3.72,0,0,1-1.56.3h-1.35l-.33,1.67h-1.41l1.21-6h2.44A2.73,2.73,0,0,1,307.58,74.65Zm-1.18,2.42a1.13,1.13,0,0,0,.38-.92.76.76,0,0,0-.29-.65,1.38,1.38,0,0,0-.83-.22h-1.1l-.42,2.1h1.18A1.63,1.63,0,0,0,306.4,77.07Z" transform="translate(-70.95 -2.62)"/><path class="cls-1" d="M310.79,75.28l-.26,1.31h2.81l-.22,1.09H310.3l-.28,1.4h3.3l-.23,1.12h-4.68l1.21-6h4.57L314,75.28Z" transform="translate(-70.95 -2.62)"/><path class="cls-1" d="M319.79,77.48a2.44,2.44,0,0,1-1.27.86l1.05,1.87h-1.48l-.95-1.69H316l-.34,1.69h-1.41l1.21-6h2.46a2.75,2.75,0,0,1,1.74.49,1.66,1.66,0,0,1,.62,1.38A2.33,2.33,0,0,1,319.79,77.48Zm-1.34-.41a1.12,1.12,0,0,0,.38-.92.75.75,0,0,0-.29-.65,1.4,1.4,0,0,0-.84-.22h-1.11l-.42,2.1h1.19A1.65,1.65,0,0,0,318.44,77.07Z" transform="translate(-70.95 -2.62)"/><circle class="cls-1" cx="100.98" cy="73.98" r="1.68"/><circle class="cls-1" cx="160.5" cy="76.6" r="1.68" transform="translate(-86.04 102.22) rotate(-34.65)"/><circle class="cls-1" cx="78.12" cy="73.98" r="1.68"/><circle class="cls-1" cx="137.63" cy="76.6" r="1.68" transform="translate(-90.09 89.22) rotate(-34.65)"/><circle class="cls-1" cx="55.25" cy="73.98" r="1.68"/><circle class="cls-1" cx="114.76" cy="76.6" r="1.68" transform="translate(-94.15 76.21) rotate(-34.65)"/><circle class="cls-1" cx="32.38" cy="73.98" r="1.68"/><circle class="cls-1" cx="91.9" cy="76.6" r="1.68" transform="translate(-98.2 63.21) rotate(-34.65)"/></svg>