<?xml version="1.0" encoding="utf-8"?>
<!-- Generator: Adobe Illustrator 21.0.0, SVG Export Plug-In . SVG Version: 6.00 Build 0)  -->
<svg version="1.1" id="Layer_1" xmlns="http://www.w3.org/2000/svg" xmlns:xlink="http://www.w3.org/1999/xlink" x="0px" y="0px"
	 viewBox="0 0 200 70" style="enable-background:new 0 0 200 70;" xml:space="preserve">
<style type="text/css">
	.st0{fill:#662D91;}
	.st1{fill:url(#SVGID_1_);}
	.st2{fill:#29ABE2;}
	.st3{fill:url(#SVGID_2_);}
	.st4{fill:url(#SVGID_3_);}
	.st5{fill:url(#SVGID_4_);}
	.st6{fill:url(#SVGID_5_);}
	.st7{fill:url(#SVGID_6_);}
	.st8{fill:url(#SVGID_7_);}
</style>
<g>
	<circle class="st0" cx="65.2" cy="11.2" r="3"/>
	<circle class="st0" cx="59.6" cy="7.5" r="2.9"/>
	<circle class="st0" cx="53.2" cy="5.2" r="2.7"/>
	<circle class="st0" cx="46.6" cy="4.1" r="2.6"/>
	<circle class="st0" cx="39.8" cy="4.6" r="2.5"/>
	<circle class="st0" cx="33.3" cy="6.4" r="2.3"/>
	<circle class="st0" cx="27.4" cy="9.5" r="2.2"/>
	<circle class="st0" cx="22.1" cy="13.8" r="2"/>
	
		<linearGradient id="SVGID_1_" gradientUnits="userSpaceOnUse" x1="-123.8502" y1="283.2295" x2="-120.0278" y2="283.2295" gradientTransform="matrix(0.8064 -0.5914 0.5914 0.8064 -51.237 -281.4507)">
		<stop  offset="5.154996e-08" style="stop-color:#29ABE2"/>
		<stop  offset="0.745" style="stop-color:#662D91"/>
	</linearGradient>
	<circle class="st1" cx="17.9" cy="19.1" r="1.9"/>
	<circle class="st2" cx="15" cy="25.1" r="1.8"/>
	<circle class="st2" cx="13.3" cy="31.6" r="1.6"/>
	<circle class="st2" cx="13" cy="38.4" r="1.5"/>
	<circle class="st2" cx="14.1" cy="45" r="1.4"/>
	<circle class="st2" cx="16.6" cy="51.3" r="1.2"/>
	<circle class="st2" cx="20.4" cy="56.9" r="1.1"/>
	<circle class="st2" cx="25.2" cy="61.6" r="1"/>
	<circle class="st2" cx="30.9" cy="65.2" r="0.8"/>
	<circle class="st2" cx="37.2" cy="67.6" r="0.7"/>
	<circle class="st2" cx="43.9" cy="68.5" r="0.5"/>
	<circle class="st2" cx="50.6" cy="68.1" r="0.4"/>
	<circle class="st2" cx="57.1" cy="66.2" r="0.3"/>
	<circle class="st2" cx="63.1" cy="63.1" r="0.1"/>
	<path class="st2" d="M68.3,58.8"/>
	<g>
		<linearGradient id="SVGID_2_" gradientUnits="userSpaceOnUse" x1="22.1483" y1="34.6486" x2="48.1844" y2="34.6486">
			<stop  offset="5.154996e-08" style="stop-color:#29ABE2"/>
			<stop  offset="0.745" style="stop-color:#662D91"/>
		</linearGradient>
		<path class="st3" d="M47,31.7c0.8-1.1,1.2-2.4,1.2-4c0-1.9-0.7-3.3-2.2-4.3c-1.5-1-3.6-1.5-6.4-1.5H27.3l-5.1,25.6h13.4
			c3.5,0,6.3-0.7,8.4-2c2.1-1.4,3.1-3.4,3.1-6c0-1.2-0.3-2.3-0.9-3.2c-0.6-0.9-1.4-1.5-2.5-2C45,33.7,46.1,32.8,47,31.7z M39.8,42
			c-0.9,0.6-2.2,0.9-3.9,0.9h-7l1.2-6.3h7.2c2.6,0,3.8,0.9,3.8,2.6C41.2,40.5,40.7,41.4,39.8,42z M40.7,31.4
			c-0.9,0.6-2.1,0.9-3.6,0.9h-6l1.2-6h6c2.5,0,3.8,0.8,3.8,2.4C42,29.9,41.5,30.8,40.7,31.4z"/>
		<linearGradient id="SVGID_3_" gradientUnits="userSpaceOnUse" x1="50.8865" y1="34.6486" x2="79.1502" y2="34.6486">
			<stop  offset="5.154996e-08" style="stop-color:#29ABE2"/>
			<stop  offset="0.745" style="stop-color:#662D91"/>
		</linearGradient>
		<path class="st4" d="M73.3,22.8c-1.9-0.9-4.1-1.4-6.6-1.4c-3.1,0-5.8,0.7-8.2,2c-2.4,1.3-4.3,3.2-5.6,5.5c-1.3,2.3-2,4.9-2,7.8
			c0,2.2,0.5,4.1,1.5,5.8c1,1.7,2.4,3,4.3,3.9c1.9,0.9,4.1,1.4,6.6,1.4c3.1,0,5.8-0.7,8.2-2c2.4-1.3,4.3-3.2,5.6-5.5
			c1.3-2.3,2-4.9,2-7.8c0-2.2-0.5-4.1-1.5-5.8C76.7,25,75.2,23.7,73.3,22.8z M72,37.9c-0.8,1.5-1.8,2.7-3.3,3.6
			c-1.4,0.9-3.1,1.4-4.9,1.4c-2.2,0-3.9-0.6-5.1-1.7c-1.2-1.2-1.8-2.7-1.8-4.7c0-1.8,0.4-3.5,1.1-5c0.8-1.5,1.8-2.7,3.3-3.6
			c1.4-0.9,3.1-1.4,4.9-1.4c2.2,0,3.9,0.6,5.1,1.7c1.2,1.2,1.8,2.7,1.8,4.7C73.2,34.7,72.8,36.4,72,37.9z"/>
		<linearGradient id="SVGID_4_" gradientUnits="userSpaceOnUse" x1="80.9028" y1="34.6486" x2="106.4277" y2="34.6486">
			<stop  offset="5.154996e-08" style="stop-color:#29ABE2"/>
			<stop  offset="0.745" style="stop-color:#662D91"/>
		</linearGradient>
		<path class="st5" d="M103.8,23.9c-1.8-1.4-4.2-2.1-7.4-2.1H86l-5.1,25.6h6l1.4-7.2h5l4,7.2h6.2l-4.5-7.9c2.3-0.7,4.1-1.9,5.4-3.6
			c1.3-1.7,1.9-3.7,1.9-6.1C106.4,27.3,105.6,25.3,103.8,23.9z M98.8,34.2c-1.1,0.9-2.6,1.4-4.6,1.4h-5l1.8-8.9h4.7
			c1.5,0,2.7,0.3,3.5,0.9c0.8,0.6,1.2,1.5,1.2,2.7C100.4,32,99.9,33.3,98.8,34.2z"/>
		<linearGradient id="SVGID_5_" gradientUnits="userSpaceOnUse" x1="107.7417" y1="34.6486" x2="136.2974" y2="34.6486">
			<stop  offset="5.154996e-08" style="stop-color:#29ABE2"/>
			<stop  offset="0.745" style="stop-color:#662D91"/>
		</linearGradient>
		<polygon class="st6" points="130.4,21.9 128.4,31.9 116.8,31.9 118.8,21.9 112.9,21.9 107.7,47.4 113.7,47.4 115.8,37 127.4,37 
			125.3,47.4 131.2,47.4 136.3,21.9 		"/>
		<linearGradient id="SVGID_6_" gradientUnits="userSpaceOnUse" x1="133.8873" y1="34.6486" x2="162.5526" y2="34.6486">
			<stop  offset="5.154996e-08" style="stop-color:#29ABE2"/>
			<stop  offset="0.745" style="stop-color:#662D91"/>
		</linearGradient>
		<path class="st7" d="M150.4,21.9l-16.5,25.6h6.3l3.3-5.5h11.9l1.2,5.5h5.9l-6.3-25.6H150.4z M146.3,37.5l6-9.9l2.2,9.9H146.3z"/>
		<linearGradient id="SVGID_7_" gradientUnits="userSpaceOnUse" x1="165.2178" y1="34.6486" x2="193.7735" y2="34.6486">
			<stop  offset="5.154996e-08" style="stop-color:#29ABE2"/>
			<stop  offset="0.745" style="stop-color:#662D91"/>
		</linearGradient>
		<polygon class="st8" points="187.9,21.9 184.8,37.9 175.2,21.9 170.3,21.9 165.2,47.4 171.1,47.4 174.3,31.4 183.8,47.4 
			188.7,47.4 193.8,21.9 		"/>
	</g>
	<g>
		<path class="st0" d="M91.7,56.3c-0.3-0.3-0.5-0.6-0.5-1.1c0-0.1,0-0.3,0-0.5l0.5-2.4h1l-0.5,2.4c0,0.1,0,0.3,0,0.4
			c0,0.3,0.1,0.5,0.2,0.6c0.1,0.1,0.3,0.2,0.6,0.2c0.3,0,0.5-0.1,0.7-0.3c0.2-0.2,0.3-0.5,0.4-0.9l0.5-2.4h1l-0.5,2.4
			c-0.3,1.3-1,1.9-2.2,1.9C92.4,56.8,92,56.6,91.7,56.3z"/>
		<path class="st0" d="M99.6,52.7c0.3,0.2,0.4,0.6,0.4,1c0,0.4-0.1,0.7-0.3,0.9c-0.2,0.3-0.4,0.5-0.7,0.6c-0.3,0.1-0.7,0.2-1.1,0.2
			h-1l-0.2,1.2h-1l0.9-4.3h1.7C98.9,52.4,99.3,52.5,99.6,52.7z M98.8,54.5c0.2-0.2,0.3-0.4,0.3-0.7c0-0.2-0.1-0.4-0.2-0.5
			c-0.1-0.1-0.3-0.2-0.6-0.2h-0.8l-0.3,1.5H98C98.4,54.7,98.6,54.6,98.8,54.5z"/>
		<path class="st0" d="M103.1,56.5c-0.3-0.2-0.6-0.4-0.7-0.7c-0.2-0.3-0.3-0.6-0.3-1c0-0.5,0.1-0.9,0.3-1.3c0.2-0.4,0.5-0.7,0.9-0.9
			c0.4-0.2,0.9-0.3,1.4-0.3c0.4,0,0.7,0.1,1,0.2c0.3,0.1,0.5,0.3,0.7,0.6l-0.7,0.6c-0.2-0.3-0.6-0.5-1-0.5c-0.3,0-0.6,0.1-0.8,0.2
			c-0.2,0.1-0.4,0.3-0.6,0.6c-0.1,0.3-0.2,0.5-0.2,0.8c0,0.3,0.1,0.6,0.3,0.8c0.2,0.2,0.5,0.3,0.9,0.3c0.5,0,0.8-0.2,1.1-0.5
			l0.6,0.6c-0.4,0.5-1,0.7-1.8,0.7C103.8,56.8,103.5,56.7,103.1,56.5z"/>
		<path class="st0" d="M107.5,56.5c-0.3-0.2-0.6-0.4-0.7-0.7c-0.2-0.3-0.3-0.6-0.3-1c0-0.5,0.1-0.9,0.3-1.3c0.2-0.4,0.5-0.7,0.9-0.9
			c0.4-0.2,0.9-0.3,1.4-0.3c0.4,0,0.8,0.1,1.1,0.2c0.3,0.2,0.6,0.4,0.7,0.7c0.2,0.3,0.3,0.6,0.3,1c0,0.5-0.1,0.9-0.3,1.3
			c-0.2,0.4-0.5,0.7-0.9,0.9c-0.4,0.2-0.9,0.3-1.4,0.3C108.2,56.8,107.8,56.7,107.5,56.5z M109.6,55.7c0.2-0.2,0.4-0.4,0.5-0.6
			c0.1-0.3,0.2-0.5,0.2-0.8c0-0.3-0.1-0.6-0.3-0.8c-0.2-0.2-0.5-0.3-0.9-0.3c-0.3,0-0.6,0.1-0.8,0.2c-0.2,0.2-0.4,0.4-0.5,0.6
			c-0.1,0.3-0.2,0.5-0.2,0.8c0,0.3,0.1,0.6,0.3,0.8c0.2,0.2,0.5,0.3,0.9,0.3C109.1,55.9,109.3,55.8,109.6,55.7z"/>
		<path class="st0" d="M117.3,52.4l-0.9,4.3h-0.9l0.5-2.6l-1.6,2.1h-0.4l-0.9-2.1l-0.5,2.6h-0.9l0.9-4.3h0.8l1.1,2.7l2.1-2.7H117.3z
			"/>
		<path class="st0" d="M118.3,52.4h1l-0.9,4.3h-1L118.3,52.4z"/>
		<path class="st0" d="M124.3,52.4l-0.9,4.3h-0.8L121,54l-0.5,2.7h-1l0.9-4.3h0.8l1.6,2.7l0.5-2.7H124.3z"/>
		<path class="st0" d="M127.8,54.5h0.9l-0.4,1.8c-0.2,0.2-0.5,0.3-0.8,0.4c-0.3,0.1-0.6,0.1-0.9,0.1c-0.4,0-0.8-0.1-1.1-0.2
			c-0.3-0.2-0.6-0.4-0.7-0.7c-0.2-0.3-0.3-0.6-0.3-1c0-0.5,0.1-0.9,0.3-1.3c0.2-0.4,0.5-0.7,1-0.9c0.4-0.2,0.9-0.3,1.4-0.3
			c0.4,0,0.8,0.1,1.1,0.2c0.3,0.1,0.5,0.3,0.7,0.6l-0.7,0.6c-0.1-0.2-0.3-0.3-0.5-0.4c-0.2-0.1-0.4-0.1-0.6-0.1
			c-0.3,0-0.6,0.1-0.9,0.2c-0.2,0.1-0.4,0.3-0.6,0.6c-0.1,0.3-0.2,0.5-0.2,0.9c0,0.3,0.1,0.6,0.3,0.8c0.2,0.2,0.5,0.3,0.9,0.3
			c0.3,0,0.5-0.1,0.7-0.2L127.8,54.5z"/>
		<path class="st0" d="M138.3,52.4l-2.3,4.3h-1.1l-0.4-2.9l-1.6,2.9h-1.1l-0.5-4.3h1l0.4,3l1.6-3h0.9l0.4,3l1.6-3H138.3z"/>
		<path class="st0" d="M139.6,53.2l-0.2,0.9h2l-0.2,0.8h-2l-0.2,1h2.3l-0.2,0.8h-3.3l0.9-4.3h3.2l-0.2,0.8H139.6z"/>
		<path class="st0" d="M146.1,54.8c0.1,0.1,0.2,0.3,0.2,0.5c0,0.4-0.2,0.8-0.5,1c-0.4,0.2-0.8,0.3-1.4,0.3h-2.3l0.9-4.3h2.1
			c0.5,0,0.8,0.1,1.1,0.3c0.2,0.2,0.4,0.4,0.4,0.7c0,0.3-0.1,0.5-0.2,0.7c-0.1,0.2-0.3,0.3-0.6,0.4C145.9,54.5,146,54.6,146.1,54.8z
			 M145,55.8c0.2-0.1,0.2-0.3,0.2-0.5c0-0.3-0.2-0.4-0.6-0.4h-1.2l-0.2,1.1h1.2C144.7,55.9,144.9,55.9,145,55.8z M143.8,53.1l-0.2,1
			h1c0.3,0,0.5-0.1,0.6-0.2s0.2-0.3,0.2-0.5c0-0.3-0.2-0.4-0.6-0.4H143.8z"/>
		<path class="st0" d="M147.1,54.1h1.7l-0.2,0.8H147L147.1,54.1z"/>
		<path class="st0" d="M150.1,52.4h1.8c0.4,0,0.8,0.1,1.1,0.2c0.3,0.1,0.6,0.4,0.7,0.6c0.2,0.3,0.3,0.6,0.3,1c0,0.5-0.1,0.9-0.3,1.3
			c-0.2,0.4-0.5,0.7-0.9,0.9c-0.4,0.2-0.9,0.3-1.4,0.3h-2.1L150.1,52.4z M151.4,55.9c0.3,0,0.6-0.1,0.9-0.2c0.2-0.1,0.4-0.3,0.6-0.6
			c0.1-0.2,0.2-0.5,0.2-0.8c0-0.3-0.1-0.6-0.3-0.8c-0.2-0.2-0.5-0.3-0.9-0.3h-0.9l-0.5,2.7H151.4z"/>
		<path class="st0" d="M156,53.2l-0.2,0.9h2l-0.2,0.8h-2l-0.2,1h2.3l-0.2,0.8h-3.3l0.9-4.3h3.2l-0.2,0.8H156z"/>
		<path class="st0" d="M163.4,52.4l-2.7,4.3h-1l-1-4.3h1l0.7,3.1l1.9-3.1H163.4z"/>
		<path class="st0" d="M164.5,53.2l-0.2,0.9h2l-0.2,0.8h-2l-0.2,1h2.3l-0.2,0.8h-3.3l0.9-4.3h3.2l-0.2,0.8H164.5z"/>
		<path class="st0" d="M167.8,52.4h1l-0.7,3.5h2.2l-0.2,0.8H167L167.8,52.4z"/>
		<path class="st0" d="M171.7,56.5c-0.3-0.2-0.6-0.4-0.7-0.7c-0.2-0.3-0.3-0.6-0.3-1c0-0.5,0.1-0.9,0.3-1.3c0.2-0.4,0.5-0.7,0.9-0.9
			c0.4-0.2,0.9-0.3,1.4-0.3c0.4,0,0.8,0.1,1.1,0.2c0.3,0.2,0.6,0.4,0.7,0.7c0.2,0.3,0.3,0.6,0.3,1c0,0.5-0.1,0.9-0.3,1.3
			c-0.2,0.4-0.5,0.7-0.9,0.9s-0.9,0.3-1.4,0.3C172.4,56.8,172,56.7,171.7,56.5z M173.7,55.7c0.2-0.2,0.4-0.4,0.5-0.6
			c0.1-0.3,0.2-0.5,0.2-0.8c0-0.3-0.1-0.6-0.3-0.8s-0.5-0.3-0.9-0.3c-0.3,0-0.6,0.1-0.8,0.2c-0.2,0.2-0.4,0.4-0.5,0.6
			c-0.1,0.3-0.2,0.5-0.2,0.8c0,0.3,0.1,0.6,0.3,0.8c0.2,0.2,0.5,0.3,0.9,0.3C173.2,55.9,173.5,55.8,173.7,55.7z"/>
		<path class="st0" d="M179.6,52.7c0.3,0.2,0.4,0.6,0.4,1c0,0.4-0.1,0.7-0.3,0.9c-0.2,0.3-0.4,0.5-0.7,0.6c-0.3,0.1-0.7,0.2-1.1,0.2
			h-1l-0.2,1.2h-1l0.9-4.3h1.7C178.9,52.4,179.3,52.5,179.6,52.7z M178.8,54.5c0.2-0.2,0.3-0.4,0.3-0.7c0-0.2-0.1-0.4-0.2-0.5
			c-0.1-0.1-0.3-0.2-0.6-0.2h-0.8l-0.3,1.5h0.8C178.3,54.7,178.6,54.6,178.8,54.5z"/>
		<path class="st0" d="M181.9,53.2l-0.2,0.9h2l-0.2,0.8h-2l-0.2,1h2.3l-0.2,0.8h-3.3l0.9-4.3h3.2l-0.2,0.8H181.9z"/>
		<path class="st0" d="M188.3,54.7c-0.2,0.3-0.5,0.5-0.9,0.6l0.7,1.3h-1l-0.7-1.2h-0.8l-0.2,1.2h-1l0.9-4.3h1.7
			c0.5,0,0.9,0.1,1.2,0.3c0.3,0.2,0.4,0.6,0.4,1C188.6,54.1,188.5,54.5,188.3,54.7z M187.3,54.5c0.2-0.2,0.3-0.4,0.3-0.7
			c0-0.2-0.1-0.4-0.2-0.5c-0.1-0.1-0.3-0.2-0.6-0.2H186l-0.3,1.5h0.8C186.9,54.7,187.2,54.6,187.3,54.5z"/>
	</g>
	<g>
		<circle class="st0" cx="83.2" cy="54.1" r="1.2"/>
		<ellipse transform="matrix(0.8227 -0.5685 0.5685 0.8227 -17.4476 52.3033)" class="st0" cx="75.1" cy="54.1" rx="1.2" ry="1.2"/>
		<circle class="st0" cx="67" cy="54.1" r="1.2"/>
		<ellipse transform="matrix(0.8227 -0.5685 0.5685 0.8227 -20.3294 43.0649)" class="st0" cx="58.9" cy="54.1" rx="1.2" ry="1.2"/>
		<circle class="st0" cx="50.7" cy="54.1" r="1.2"/>
		<ellipse transform="matrix(0.8227 -0.5685 0.5685 0.8227 -23.2112 33.8264)" class="st0" cx="42.6" cy="54.1" rx="1.2" ry="1.2"/>
		<circle class="st0" cx="34.5" cy="54.1" r="1.2"/>
		<ellipse transform="matrix(0.8227 -0.5685 0.5685 0.8227 -26.093 24.5879)" class="st0" cx="26.4" cy="54.1" rx="1.2" ry="1.2"/>
	</g>
</g>
</svg>
